<?xml version="1.0" encoding="UTF-8" standalone="no"?>
<svg
   viewBox="0 0 69.373589 30"
   height="30"
   width="69.373589"
   xml:space="preserve"
   id="svg2"
   version="1.1"
   sodipodi:docname="est_logo.svg"
   inkscape:version="1.1.1 (3bf5ae0d25, 2021-09-20)"
   xmlns:inkscape="http://www.inkscape.org/namespaces/inkscape"
   xmlns:sodipodi="http://sodipodi.sourceforge.net/DTD/sodipodi-0.dtd"
   xmlns="http://www.w3.org/2000/svg"
   xmlns:svg="http://www.w3.org/2000/svg"
   xmlns:rdf="http://www.w3.org/1999/02/22-rdf-syntax-ns#"
   xmlns:cc="http://creativecommons.org/ns#"
   xmlns:dc="http://purl.org/dc/elements/1.1/"><sodipodi:namedview
     id="namedview924"
     pagecolor="#ffffff"
     bordercolor="#666666"
     borderopacity="1.0"
     inkscape:pageshadow="2"
     inkscape:pageopacity="0.0"
     inkscape:pagecheckerboard="0"
     showgrid="false"
     inkscape:zoom="4.8300002"
     inkscape:cx="25.258798"
     inkscape:cy="23.084885"
     inkscape:window-width="1920"
     inkscape:window-height="1017"
     inkscape:window-x="1672"
     inkscape:window-y="-8"
     inkscape:window-maximized="1"
     inkscape:current-layer="layer1" /><metadata
     id="metadata8"><rdf:RDF><cc:Work
         rdf:about=""><dc:format>image/svg+xml</dc:format><dc:type
           rdf:resource="http://purl.org/dc/dcmitype/StillImage" /></cc:Work></rdf:RDF></metadata><defs
     id="defs6" /><g
     inkscape:groupmode="layer"
     id="layer1"
     inkscape:label="Layer 1"
     transform="translate(-99.562001,-42.938564)"><g
       transform="matrix(0.35071388,0,0,-0.35071388,98.936608,73.210778)"
       id="g10"><g
         transform="scale(0.1)"
         id="g12"><path
           id="path14"
           style="fill:#231f20;fill-opacity:1;fill-rule:nonzero;stroke:none"
           d="M 17.832,179.523 V 261.66 H 33.1523 V 193 H 73.1289 V 179.523 H 17.832" /><path
           id="path16"
           style="fill:#231f20;fill-opacity:1;fill-rule:nonzero;stroke:none"
           d="m 84.418,179.523 v 82.137 h 57.023 V 248.18 H 99.7383 V 228.137 H 136.719 V 214.656 H 99.7383 V 193 H 141.902 V 179.523 H 84.418" /><path
           id="path18"
           style="fill:#231f20;fill-opacity:1;fill-rule:nonzero;stroke:none"
           d="m 156.418,179.523 v 82.137 h 15.32 v -33.523 h 32.836 v 33.523 h 15.321 v -82.137 h -15.321 v 35.133 h -32.836 v -35.133 h -15.32" /><path
           id="path20"
           style="fill:#231f20;fill-opacity:1;fill-rule:nonzero;stroke:none"
           d="m 236.48,179.523 v 82.137 h 32.489 c 8.062,0 14.726,-2.265 19.988,-6.797 5.258,-4.531 7.891,-10.867 7.891,-19.008 0,-5.222 -1.383,-10.039 -4.149,-14.457 -2.765,-4.418 -6.797,-7.546 -12.097,-9.39 l 20.39,-32.485 h -16.699 l -19.242,30.758 h -13.246 v -30.758 z m 15.325,43.661 h 15.32 c 4.531,0 8.121,1.093 10.77,3.285 2.652,2.187 3.976,5.355 3.976,9.504 0,8.523 -4.992,12.785 -14.976,12.785 h -15.09 v -25.574" /><path
           id="path22"
           style="fill:#231f20;fill-opacity:1;fill-rule:nonzero;stroke:none"
           d="m 338.895,178.254 c -7.985,0 -14.997,1.711 -21.02,5.125 -6.031,3.418 -10.082,8.469 -12.156,15.152 l 13.824,5.414 c 1.535,-3.918 4.051,-6.968 7.547,-9.16 3.492,-2.187 7.582,-3.281 12.265,-3.281 4.532,0 8.352,0.902 11.465,2.707 3.11,1.805 4.664,4.512 4.664,8.121 0,2.84 -0.98,5.07 -2.937,6.684 -1.961,1.609 -4.742,2.953 -8.352,4.027 l -13.824,3.344 c -6.297,1.613 -11.152,4.051 -14.574,7.312 -3.418,3.266 -5.125,8.239 -5.125,14.918 0,7.449 2.82,13.383 8.469,17.801 5.644,4.418 12.613,6.625 20.906,6.625 14.437,0 24.078,-5.609 28.914,-16.82 l -12.555,-5.528 c -3.226,6.293 -9.101,9.446 -17.625,9.446 -3.687,0 -6.797,-0.864 -9.332,-2.594 -2.535,-1.727 -3.801,-4.32 -3.801,-7.774 0,-4.609 3.993,-7.988 11.981,-10.14 l 14.055,-3.453 c 12.519,-2.918 18.777,-10.524 18.777,-22.813 0,-7.449 -2.977,-13.496 -8.93,-18.14 -5.953,-4.649 -13.496,-6.973 -22.636,-6.973" /><path
           id="path24"
           style="fill:#231f20;fill-opacity:1;fill-rule:nonzero;stroke:none"
           d="m 402.023,179.523 v 69.004 H 378.41 v 13.133 h 62.438 v -13.133 h -23.614 v -69.004 h -15.211" /><path
           id="path26"
           style="fill:#231f20;fill-opacity:1;fill-rule:nonzero;stroke:none"
           d="m 483.816,178.254 c -9.832,0 -17.644,2.535 -23.441,7.605 -5.797,5.067 -8.699,12.403 -8.699,22 V 261.66 H 467 v -51.953 c 0,-5.379 1.383,-9.66 4.145,-12.848 2.765,-3.187 6.992,-4.781 12.671,-4.781 11.215,0 16.821,5.875 16.821,17.629 v 51.953 h 15.32 v -52.644 c 0,-9.68 -2.918,-17.227 -8.754,-22.641 -5.836,-5.414 -13.633,-8.121 -23.387,-8.121" /><path
           id="path28"
           style="fill:#231f20;fill-opacity:1;fill-rule:nonzero;stroke:none"
           d="m 531.973,179.523 v 82.137 h 15.32 v -33.523 h 32.832 v 33.523 h 15.324 v -82.137 h -15.324 v 35.133 h -32.832 v -35.133 h -15.32" /><path
           id="path30"
           style="fill:#231f20;fill-opacity:1;fill-rule:nonzero;stroke:none"
           d="m 612.039,179.523 v 82.137 h 15.32 V 193 h 39.973 v -13.477 h -55.293" /><path
           id="path32"
           style="fill:#231f20;fill-opacity:1;fill-rule:nonzero;stroke:none"
           d="m 707.426,179.523 v 82.137 h 55.179 v -13.48 h -39.742 v -20.735 h 34.098 v -13.363 h -34.098 v -34.559 h -15.437" /><path
           id="path34"
           style="fill:#231f20;fill-opacity:1;fill-rule:nonzero;stroke:none"
           d="m 806.148,178.254 c -9.828,0 -17.64,2.535 -23.441,7.605 -5.797,5.067 -8.695,12.403 -8.695,22 v 53.801 h 15.32 v -51.953 c 0,-5.379 1.383,-9.66 4.145,-12.848 2.765,-3.187 6.992,-4.781 12.671,-4.781 11.215,0 16.821,5.875 16.821,17.629 v 51.953 h 15.324 v -52.644 c 0,-9.68 -2.922,-17.227 -8.758,-22.641 -5.836,-5.414 -13.633,-8.121 -23.387,-8.121 z m -16.585,90.777 v 15.094 h 13.707 v -15.094 z m 23.039,0 v 15.094 h 13.707 v -15.094 h -13.707" /><path
           id="path36"
           style="fill:#231f20;fill-opacity:1;fill-rule:nonzero;stroke:none"
           d="m 854.305,179.523 v 82.137 h 32.488 c 8.062,0 14.727,-2.265 19.984,-6.797 5.262,-4.531 7.891,-10.867 7.891,-19.008 0,-5.222 -1.379,-10.039 -4.148,-14.457 -2.762,-4.418 -6.793,-7.546 -12.094,-9.39 l 20.39,-32.485 h -16.703 l -19.238,30.758 h -13.25 v -30.758 z m 15.32,43.661 h 15.32 c 4.535,0 8.121,1.093 10.774,3.285 2.648,2.187 3.972,5.355 3.972,9.504 0,8.523 -4.992,12.785 -14.972,12.785 h -15.094 v -25.574" /><path
           id="path38"
           style="fill:#231f20;fill-opacity:1;fill-rule:nonzero;stroke:none"
           d="M 17.832,30.4531 V 112.59 H 74.8555 V 99.1133 H 33.1523 V 79.0664 H 70.1328 V 65.5898 H 33.1523 V 43.9336 H 75.3164 V 30.4531 H 17.832" /><path
           id="path40"
           style="fill:#231f20;fill-opacity:1;fill-rule:nonzero;stroke:none"
           d="m 103.426,29.6484 c -3.227,0 -5.8947,0.5743 -8.008,1.7266 -2.1094,1.1523 -3.5703,2.7461 -4.375,4.7813 -0.8086,2.0351 -1.3282,3.7421 -1.5586,5.125 -0.2266,1.3828 -0.3438,3.0351 -0.3438,4.957 V 112.59 H 103.195 V 46.3516 c 0,-3.2266 1.688,-4.8399 5.067,-4.8399 0.926,0 3.074,0.1563 6.453,0.461 V 31.2578 c -3.996,-1.0742 -7.758,-1.6094 -11.289,-1.6094" /><path
           id="path42"
           style="fill:#231f20;fill-opacity:1;fill-rule:nonzero;stroke:none"
           d="m 149.391,29.0703 c -7.758,0 -14.286,2.0938 -19.586,6.2774 -5.297,4.1875 -7.95,10.1211 -7.95,17.8007 V 64.668 c 0,7.9883 2.594,14.2851 7.778,18.8945 5.183,4.6094 11.617,6.9102 19.297,6.9102 6.988,0 12.976,-2.0157 17.968,-6.0469 4.993,-4.0352 7.493,-9.7344 7.493,-17.1055 V 55.9102 h -37.903 v -3.2227 c 0,-3.6094 1.305,-6.4883 3.918,-8.6367 2.61,-2.1524 5.836,-3.2266 9.676,-3.2266 2.301,0 4.606,0.6875 6.91,2.0703 2.305,1.3828 4.266,3.2266 5.875,5.5313 l 10.832,-6.2227 C 169.32,33.4492 161.215,29.0703 149.391,29.0703 Z M 136.488,65.707 h 23.848 v 1.6133 c 0,3.7617 -1.094,6.582 -3.285,8.4649 -2.192,1.8828 -4.899,2.8242 -8.121,2.8242 -3.379,0 -6.297,-1 -8.754,-2.9961 -2.457,-2 -3.688,-5.0313 -3.688,-9.1016 V 65.707" /><path
           id="path44"
           style="fill:#231f20;fill-opacity:1;fill-rule:nonzero;stroke:none"
           d="M 187.176,30.4531 V 112.59 h 14.054 l 0.118,-47.4611 21.539,24.3086 h 16.703 l -21.078,-22.2344 22,-36.75 H 224.73 l -15.781,26.9571 -7.719,-8.293 V 30.4531 h -14.054" /><path
           id="path46"
           style="fill:#231f20;fill-opacity:1;fill-rule:nonzero;stroke:none"
           d="m 268.391,29.5313 c -4.836,0 -8.797,1.2304 -11.864,3.6875 -3.074,2.457 -4.609,6.1796 -4.609,11.1718 v 33.8711 h -7.949 v 11.1758 h 7.949 v 17.8555 h 14.055 V 89.4375 h 12.785 V 78.2617 H 265.973 V 47.7344 c 0,-3.7656 1.84,-5.6446 5.527,-5.6446 2.535,0 4.953,0.1915 7.258,0.5743 V 30.6836 c -2.992,-0.7695 -6.453,-1.1523 -10.367,-1.1523" /><path
           id="path48"
           style="fill:#231f20;fill-opacity:1;fill-rule:nonzero;stroke:none"
           d="m 287.512,30.4531 v 58.9844 h 13.711 v -9.793 h 0.23 c 1.688,3.0703 4.434,5.6641 8.238,7.7735 3.801,2.1172 7.465,3.1718 11,3.1718 2.149,0 3.723,-0.1171 4.723,-0.3476 V 77.3398 c -1.23,0.2305 -2.996,0.3438 -5.297,0.3438 -5.457,0 -9.91,-1.5156 -13.367,-4.5469 -3.457,-3.0351 -5.184,-7.2031 -5.184,-12.5 V 30.4531 h -14.054" /><path
           id="path50"
           style="fill:#231f20;fill-opacity:1;fill-rule:nonzero;stroke:none"
           d="m 359.395,29.0703 c -7.528,0 -13.918,2.0547 -19.18,6.1641 -5.262,4.1094 -7.891,9.7734 -7.891,16.9922 V 65.707 c 0,7.6016 2.688,13.6289 8.067,18.0821 5.371,4.457 11.554,6.6836 18.547,6.6836 7.449,0 13.824,-2.2657 19.121,-6.7969 5.296,-4.5313 7.949,-10.4453 7.949,-17.7422 V 53.8398 c 0,-7.6015 -2.688,-13.6328 -8.067,-18.0898 -5.375,-4.4531 -11.554,-6.6797 -18.546,-6.6797 z m 0,11.8672 c 3.378,0 6.277,0.9609 8.699,2.8789 2.418,1.9219 3.629,4.8399 3.629,8.7578 v 14.6289 c 0,3.4532 -1.192,6.2032 -3.571,8.2383 -2.382,2.0352 -5.453,3.0508 -9.214,3.0508 -3.379,0 -6.282,-0.9609 -8.704,-2.8789 -2.414,-1.918 -3.625,-4.8399 -3.625,-8.7578 V 52.3438 c 0,-3.4571 1.211,-6.2227 3.625,-8.293 2.422,-2.0781 5.477,-3.1133 9.161,-3.1133" /><path
           id="path52"
           style="fill:#231f20;fill-opacity:1;fill-rule:nonzero;stroke:none"
           d="m 398.449,30.4531 v 58.9844 h 13.707 v -7.2617 h 0.235 c 3.914,5.6094 9.484,8.414 16.699,8.414 6.609,0 11.695,-1.9609 15.265,-5.8789 3.571,-3.914 5.356,-9.4062 5.356,-16.4726 V 30.4531 H 435.66 V 64.668 c 0,9.0625 -3.648,13.5937 -10.945,13.5937 -8.141,0 -12.211,-4.914 -12.211,-14.7461 V 30.4531 h -14.055" /><path
           id="path54"
           style="fill:#231f20;fill-opacity:1;fill-rule:nonzero;stroke:none"
           d="m 464.227,30.4531 v 58.9844 h 14.054 V 30.4531 Z m 0,67.9688 v 14.9761 h 14.054 V 98.4219 h -14.054" /><path
           id="path56"
           style="fill:#231f20;fill-opacity:1;fill-rule:nonzero;stroke:none"
           d="m 515.953,29.1875 c -12.441,0 -21.234,3.8008 -26.383,11.4023 l 9.91,7.4883 c 3.915,-5.1445 9.329,-7.7187 16.243,-7.7187 3.226,0 5.968,0.5976 8.238,1.789 2.266,1.1875 3.394,3.0118 3.394,5.4688 0,2.1523 -0.765,3.668 -2.3,4.5547 -1.535,0.8789 -4.457,1.7031 -8.758,2.4726 l -7.719,1.3828 c -10.75,1.918 -16.129,7.0274 -16.129,15.3204 0,5.914 2.27,10.6211 6.797,14.1171 4.535,3.4922 10.063,5.2383 16.59,5.2383 10.906,0 18.625,-3.2265 23.156,-9.6758 l -10.137,-6.9101 c -3.3,3.8359 -7.679,5.7578 -13.132,5.7578 -2.918,0 -5.243,-0.5586 -6.969,-1.6719 -1.731,-1.1133 -2.594,-2.7422 -2.594,-4.8945 0,-1.6914 0.785,-2.8984 2.363,-3.6289 1.575,-0.7266 4.051,-1.4024 7.43,-2.0156 0.613,-0.0782 1.074,-0.1524 1.383,-0.2305 l 8.871,-1.7266 c 10.52,-2.0781 15.781,-7.5664 15.781,-16.4765 0,-6.2969 -2.648,-11.211 -7.949,-14.7461 -5.301,-3.5313 -11.328,-5.2969 -18.086,-5.2969" /><path
           id="path58"
           style="fill:#231f20;fill-opacity:1;fill-rule:nonzero;stroke:none"
           d="m 578.395,29.0703 c -7.68,0 -14.192,2.1328 -19.528,6.3945 -5.34,4.2657 -8.008,10.1563 -8.008,17.6836 V 64.668 c 0,7.9883 2.594,14.2851 7.778,18.8945 5.183,4.6094 11.617,6.9102 19.297,6.9102 6.988,0 13.035,-2.0157 18.144,-6.0469 5.106,-4.0352 7.66,-9.7344 7.66,-17.1055 v -1.1562 h -13.711 v 1.1562 c 0,3.7617 -1.207,6.582 -3.629,8.4649 -2.418,1.8828 -5.242,2.8242 -8.464,2.8242 -3.379,0 -6.297,-1 -8.754,-2.9961 -2.457,-2 -3.688,-5.0313 -3.688,-9.1016 V 52.6875 c 0,-3.6875 1.188,-6.5859 3.571,-8.6992 2.382,-2.1094 5.492,-3.1641 9.332,-3.1641 3.226,0 5.968,0.9375 8.238,2.8203 2.262,1.8828 3.394,4.7032 3.394,8.4649 v 0.5781 h 13.711 v -0.5781 c 0,-7.3711 -2.476,-13.0547 -7.433,-17.0469 -4.95,-3.9922 -10.922,-5.9922 -17.91,-5.9922" /><path
           id="path60"
           style="fill:#231f20;fill-opacity:1;fill-rule:nonzero;stroke:none"
           d="M 614.223,30.4531 V 112.59 h 14.05 V 82.1758 h 0.348 c 3.918,5.6094 9.332,8.414 16.242,8.414 6.61,0 11.692,-1.9609 15.266,-5.8789 3.57,-3.914 5.355,-9.4062 5.355,-16.4726 V 30.4531 H 651.43 V 64.668 c 0,9.0625 -3.645,13.5937 -10.942,13.5937 -8.14,0 -12.215,-4.914 -12.215,-14.7461 V 30.4531 h -14.05" /><path
           id="path62"
           style="fill:#231f20;fill-opacity:1;fill-rule:nonzero;stroke:none"
           d="m 704.77,29.0703 c -7.758,0 -14.29,2.0938 -19.586,6.2774 -5.297,4.1875 -7.95,10.1211 -7.95,17.8007 V 64.668 c 0,7.9883 2.59,14.2851 7.778,18.8945 5.183,4.6094 11.617,6.9102 19.293,6.9102 6.992,0 12.98,-2.0157 17.972,-6.0469 4.993,-4.0352 7.489,-9.7344 7.489,-17.1055 V 55.9102 h -37.903 v -3.2227 c 0,-3.6094 1.309,-6.4883 3.918,-8.6367 2.614,-2.1524 5.836,-3.2266 9.68,-3.2266 2.301,0 4.605,0.6875 6.91,2.0703 2.305,1.3828 4.262,3.2266 5.875,5.5313 l 10.828,-6.2227 C 724.699,33.4492 716.594,29.0703 704.77,29.0703 Z M 691.863,65.707 h 23.848 v 1.6133 c 0,3.7617 -1.094,6.582 -3.285,8.4649 -2.188,1.8828 -4.895,2.8242 -8.121,2.8242 -3.379,0 -6.293,-1 -8.75,-2.9961 -2.461,-2 -3.692,-5.0313 -3.692,-9.1016 V 65.707" /><path
           id="path64"
           style="fill:#231f20;fill-opacity:1;fill-rule:nonzero;stroke:none"
           d="m 799.348,29.1875 c -7.989,0 -14.996,1.707 -21.024,5.125 -6.027,3.418 -10.078,8.4648 -12.156,15.1523 l 13.824,5.4141 c 1.539,-3.918 4.051,-6.9726 7.547,-9.1601 3.496,-2.1875 7.582,-3.2813 12.27,-3.2813 4.531,0 8.351,0.8984 11.464,2.707 3.11,1.8008 4.665,4.5078 4.665,8.1211 0,2.8399 -0.981,5.0664 -2.942,6.6797 -1.957,1.6133 -4.742,2.957 -8.348,4.0313 l -13.824,3.3437 c -6.301,1.6094 -11.156,4.0508 -14.574,7.3125 -3.418,3.2656 -5.125,8.2383 -5.125,14.918 0,7.4492 2.82,13.3832 8.465,17.7972 5.644,4.418 12.617,6.625 20.91,6.625 14.438,0 24.078,-5.606 28.914,-16.8167 L 816.859,91.625 c -3.226,6.2969 -9.101,9.445 -17.625,9.445 -3.687,0 -6.8,-0.863 -9.332,-2.5895 -2.535,-1.7305 -3.8,-4.3203 -3.8,-7.7774 0,-4.6093 3.992,-7.9883 11.976,-10.1367 l 14.055,-3.457 c 12.519,-2.918 18.781,-10.5235 18.781,-22.8086 0,-7.4531 -2.976,-13.4961 -8.93,-18.1445 -5.953,-4.6446 -13.496,-6.9688 -22.636,-6.9688" /><path
           id="path66"
           style="fill:#231f20;fill-opacity:1;fill-rule:nonzero;stroke:none"
           d="m 868.125,29.0703 c -7.68,0 -14.191,2.1328 -19.531,6.3945 -5.336,4.2657 -8.004,10.1563 -8.004,17.6836 V 64.668 c 0,7.9883 2.59,14.2851 7.777,18.8945 5.184,4.6094 11.613,6.9102 19.293,6.9102 6.992,0 13.039,-2.0157 18.145,-6.0469 5.109,-4.0352 7.664,-9.7344 7.664,-17.1055 v -1.1562 h -13.711 v 1.1562 c 0,3.7617 -1.207,6.582 -3.629,8.4649 -2.418,1.8828 -5.242,2.8242 -8.469,2.8242 -3.379,0 -6.293,-1 -8.754,-2.9961 -2.457,-2 -3.687,-5.0313 -3.687,-9.1016 V 52.6875 c 0,-3.6875 1.191,-6.5859 3.574,-8.6992 2.379,-2.1094 5.488,-3.1641 9.332,-3.1641 3.223,0 5.969,0.9375 8.234,2.8203 2.266,1.8828 3.399,4.7032 3.399,8.4649 v 0.5781 h 13.711 v -0.5781 c 0,-7.3711 -2.481,-13.0547 -7.434,-17.0469 -4.953,-3.9922 -10.926,-5.9922 -17.91,-5.9922" /><path
           id="path68"
           style="fill:#231f20;fill-opacity:1;fill-rule:nonzero;stroke:none"
           d="M 903.949,30.4531 V 112.59 h 14.055 V 82.1758 h 0.348 c 3.918,5.6094 9.332,8.414 16.242,8.414 6.605,0 11.691,-1.9609 15.261,-5.8789 3.575,-3.914 5.36,-9.4062 5.36,-16.4726 V 30.4531 H 941.16 V 64.668 c 0,9.0625 -3.648,13.5937 -10.945,13.5937 -8.141,0 -12.211,-4.914 -12.211,-14.7461 V 30.4531 h -14.055" /><path
           id="path70"
           style="fill:#231f20;fill-opacity:1;fill-rule:nonzero;stroke:none"
           d="m 986.434,29.3047 c -6.145,0 -11.098,1.5898 -14.864,4.7773 -3.761,3.1875 -5.644,7.5469 -5.644,13.0782 0,5.4492 2.133,9.8476 6.394,13.1875 4.262,3.3437 9.391,5.0117 15.379,5.0117 h 15.671 v 5.414 c 0,5.9141 -3.765,8.8711 -11.292,8.8711 -3.148,0 -5.703,-0.5195 -7.66,-1.5547 -1.961,-1.039 -2.938,-2.4765 -2.938,-4.3203 v -2.0742 h -12.671 v 1.6133 c 0,5.9141 2.304,10.2734 6.914,13.0742 4.605,2.8047 10.093,4.207 16.468,4.207 7.375,0 13.419,-1.4609 18.149,-4.3789 4.72,-2.9179 7.08,-7.7187 7.08,-14.3984 V 43.125 c 0,-7.2187 0.35,-11.4453 1.04,-12.6719 h -13.94 c -0.08,0.3828 -0.19,1.3828 -0.34,2.9961 l -0.24,2.418 h -0.23 c -2.46,-2.6094 -4.948,-4.3555 -7.487,-5.2422 -2.532,-0.8828 -5.797,-1.3203 -9.789,-1.3203 z m 3.8,11.0547 c 5.145,0 8.621,1.039 10.426,3.1094 1.8,2.0781 2.71,4.9921 2.71,8.7578 v 2.8789 h -13.827 c -6.605,0 -9.906,-2.418 -9.906,-7.2539 0,-4.9922 3.535,-7.4922 10.597,-7.4922" /><path
           id="path72"
           style="fill:#231f20;fill-opacity:1;fill-rule:nonzero;stroke:none"
           d="m 1046.34,29.6484 c -3.23,0 -5.9,0.5743 -8.01,1.7266 -2.11,1.1523 -3.57,2.7461 -4.38,4.7813 -0.81,2.0351 -1.32,3.7421 -1.55,5.125 -0.23,1.3828 -0.35,3.0351 -0.35,4.957 V 112.59 h 14.06 V 46.3516 c 0,-3.2266 1.68,-4.8399 5.06,-4.8399 0.93,0 3.08,0.1563 6.46,0.461 V 31.2578 c -4,-1.0742 -7.76,-1.6094 -11.29,-1.6094" /><path
           id="path74"
           style="fill:#231f20;fill-opacity:1;fill-rule:nonzero;stroke:none"
           d="m 1085.96,29.5313 c -4.83,0 -8.79,1.2304 -11.86,3.6875 -3.07,2.457 -4.61,6.1796 -4.61,11.1718 v 33.8711 h -7.95 v 11.1758 h 7.95 v 17.8555 h 14.06 V 89.4375 h 12.78 V 78.2617 h -12.78 V 47.7344 c 0,-3.7656 1.84,-5.6446 5.52,-5.6446 2.54,0 4.96,0.1915 7.26,0.5743 V 30.6836 c -2.99,-0.7695 -6.45,-1.1523 -10.37,-1.1523" /><path
           id="path76"
           style="fill:#231f20;fill-opacity:1;fill-rule:nonzero;stroke:none"
           d="m 1125.82,29.3047 c -6.6,0 -11.71,1.9922 -15.32,5.9883 -3.61,3.9922 -5.41,9.4843 -5.41,16.4726 v 37.6719 h 14.05 V 55.2227 c 0,-9.0625 3.69,-13.5938 11.06,-13.5938 8.07,0 12.1,4.9531 12.1,14.8633 v 32.9453 h 14.05 V 30.4531 h -13.59 v 7.2578 h -0.35 c -3.91,-5.6054 -9.45,-8.4062 -16.59,-8.4062" /><path
           id="path78"
           style="fill:#231f20;fill-opacity:1;fill-rule:nonzero;stroke:none"
           d="m 1170.87,30.4531 v 58.9844 h 13.7 v -7.2617 h 0.24 c 3.91,5.6094 9.48,8.414 16.7,8.414 6.61,0 11.69,-1.9609 15.26,-5.8789 3.57,-3.914 5.36,-9.4062 5.36,-16.4726 V 30.4531 h -14.05 V 64.668 c 0,9.0625 -3.65,13.5937 -10.95,13.5937 -8.14,0 -12.21,-4.914 -12.21,-14.7461 V 30.4531 h -14.05" /><path
           id="path80"
           style="fill:#231f20;fill-opacity:1;fill-rule:nonzero;stroke:none"
           d="m 1258.76,7.76172 c -5.22,0 -10.17,1.24609 -14.86,3.74218 -4.68,2.4961 -7.72,6.0117 -9.1,10.5391 l 13.36,4.7265 c 2.61,-5.1484 6.57,-7.7187 11.87,-7.7187 4.22,0 7.49,1.2265 9.79,3.6836 2.31,2.457 3.46,5.8008 3.46,10.0234 v 6.2188 h -0.23 c -3.76,-5.1446 -9.03,-7.7188 -15.78,-7.7188 -7.3,0 -13.02,2 -17.17,5.9922 -4.15,3.9961 -6.22,9.7148 -6.22,17.1641 V 65.707 c 0,7.7539 2.17,13.8399 6.51,18.2578 4.34,4.4141 9.89,6.625 16.65,6.625 3.3,0 6.43,-0.7695 9.39,-2.3046 2.95,-1.5391 5.24,-3.4922 6.85,-5.875 h 0.23 v 7.0273 h 13.36 V 35.4102 c 0,-7.6836 -2.32,-14.211 -6.97,-19.586 -4.65,-5.3789 -11.69,-8.06248 -21.14,-8.06248 z m 2.19,34.67578 c 3.38,0 6.28,0.957 8.7,2.8789 2.42,1.918 3.63,4.8359 3.63,8.7539 v 13.1328 c 0,3.4532 -1.19,6.2032 -3.57,8.2383 -2.38,2.0352 -5.46,3.0508 -9.22,3.0508 -3.38,0 -6.28,-0.9609 -8.7,-2.8789 -2.41,-1.918 -3.63,-4.8399 -3.63,-8.7578 V 53.8398 c 0,-3.457 1.22,-6.2226 3.63,-8.2929 2.42,-2.0781 5.48,-3.1094 9.16,-3.1094" /><path
           id="path82"
           style="fill:#231f20;fill-opacity:1;fill-rule:nonzero;stroke:none"
           d="m 1324.2,29.1875 c -12.44,0 -21.24,3.8008 -26.38,11.4023 l 9.91,7.4883 c 3.91,-5.1445 9.32,-7.7187 16.24,-7.7187 3.23,0 5.97,0.5976 8.24,1.789 2.26,1.1875 3.39,3.0118 3.39,5.4688 0,2.1523 -0.77,3.668 -2.3,4.5547 -1.54,0.8789 -4.46,1.7031 -8.76,2.4726 l -7.72,1.3828 c -10.75,1.918 -16.12,7.0274 -16.12,15.3204 0,5.914 2.26,10.6211 6.79,14.1171 4.54,3.4922 10.06,5.2383 16.59,5.2383 10.91,0 18.63,-3.2265 23.16,-9.6758 l -10.14,-6.9101 c -3.3,3.8359 -7.68,5.7578 -13.13,5.7578 -2.92,0 -5.24,-0.5586 -6.97,-1.6719 -1.73,-1.1133 -2.59,-2.7422 -2.59,-4.8945 0,-1.6914 0.78,-2.8984 2.36,-3.6289 1.57,-0.7266 4.05,-1.4024 7.43,-2.0156 0.61,-0.0782 1.07,-0.1524 1.38,-0.2305 l 8.87,-1.7266 c 10.52,-2.0781 15.78,-7.5664 15.78,-16.4765 0,-6.2969 -2.65,-11.211 -7.94,-14.7461 -5.31,-3.5313 -11.33,-5.2969 -18.09,-5.2969" /><path
           id="path84"
           style="fill:#231f20;fill-opacity:1;fill-rule:nonzero;stroke:none"
           d="m 1380.3,29.5313 c -4.84,0 -8.8,1.2304 -11.87,3.6875 -3.07,2.457 -4.6,6.1796 -4.6,11.1718 v 33.8711 h -7.95 v 11.1758 h 7.95 v 17.8555 h 14.05 V 89.4375 h 12.79 V 78.2617 h -12.79 V 47.7344 c 0,-3.7656 1.84,-5.6446 5.53,-5.6446 2.54,0 4.95,0.1915 7.26,0.5743 V 30.6836 c -2.99,-0.7695 -6.46,-1.1523 -10.37,-1.1523" /><path
           id="path86"
           style="fill:#231f20;fill-opacity:1;fill-rule:nonzero;stroke:none"
           d="m 1424.88,29.0703 c -7.75,0 -14.29,2.0938 -19.58,6.2774 -5.3,4.1875 -7.95,10.1211 -7.95,17.8007 V 64.668 c 0,7.9883 2.59,14.2851 7.78,18.8945 5.18,4.6094 11.61,6.9102 19.29,6.9102 6.99,0 12.98,-2.0157 17.97,-6.0469 4.99,-4.0352 7.49,-9.7344 7.49,-17.1055 V 55.9102 h -37.9 v -3.2227 c 0,-3.6094 1.31,-6.4883 3.91,-8.6367 2.62,-2.1524 5.84,-3.2266 9.68,-3.2266 2.31,0 4.61,0.6875 6.91,2.0703 2.31,1.3828 4.27,3.2266 5.88,5.5313 l 10.83,-6.2227 c -4.38,-8.7539 -12.48,-13.1328 -24.31,-13.1328 z m -12.9,36.6367 h 23.85 v 1.6133 c 0,3.7617 -1.1,6.582 -3.29,8.4649 -2.19,1.8828 -4.9,2.8242 -8.12,2.8242 -3.38,0 -6.29,-1 -8.75,-2.9961 -2.46,-2 -3.69,-5.0313 -3.69,-9.1016 V 65.707" /><path
           id="path88"
           style="fill:#231f20;fill-opacity:1;fill-rule:nonzero;stroke:none"
           d="m 1487.32,29.0703 c -7.68,0 -14.19,2.1328 -19.53,6.3945 -5.34,4.2657 -8,10.1563 -8,17.6836 V 64.668 c 0,7.9883 2.59,14.2851 7.77,18.8945 5.19,4.6094 11.62,6.9102 19.3,6.9102 6.99,0 13.03,-2.0157 18.14,-6.0469 5.11,-4.0352 7.66,-9.7344 7.66,-17.1055 v -1.1562 h -13.71 v 1.1562 c 0,3.7617 -1.2,6.582 -3.63,8.4649 -2.41,1.8828 -5.23,2.8242 -8.46,2.8242 -3.38,0 -6.3,-1 -8.75,-2.9961 -2.46,-2 -3.69,-5.0313 -3.69,-9.1016 V 52.6875 c 0,-3.6875 1.19,-6.5859 3.57,-8.6992 2.38,-2.1094 5.49,-3.1641 9.33,-3.1641 3.23,0 5.97,0.9375 8.24,2.8203 2.26,1.8828 3.39,4.7032 3.39,8.4649 v 0.5781 h 13.71 v -0.5781 c 0,-7.3711 -2.47,-13.0547 -7.43,-17.0469 -4.95,-3.9922 -10.92,-5.9922 -17.91,-5.9922" /><path
           id="path90"
           style="fill:#231f20;fill-opacity:1;fill-rule:nonzero;stroke:none"
           d="M 1523.15,30.4531 V 112.59 h 14.05 V 82.1758 h 0.35 c 3.91,5.6094 9.33,8.414 16.24,8.414 6.61,0 11.69,-1.9609 15.26,-5.8789 3.58,-3.914 5.36,-9.4062 5.36,-16.4726 V 30.4531 h -14.05 V 64.668 c 0,9.0625 -3.65,13.5937 -10.95,13.5937 -8.14,0 -12.21,-4.914 -12.21,-14.7461 V 30.4531 h -14.05" /><path
           id="path92"
           style="fill:#231f20;fill-opacity:1;fill-rule:nonzero;stroke:none"
           d="m 1588.93,30.4531 v 58.9844 h 13.71 v -7.2617 h 0.23 c 3.92,5.6094 9.49,8.414 16.7,8.414 6.61,0 11.7,-1.9609 15.27,-5.8789 3.57,-3.914 5.35,-9.4062 5.35,-16.4726 V 30.4531 h -14.05 V 64.668 c 0,9.0625 -3.65,13.5937 -10.94,13.5937 -8.15,0 -12.22,-4.914 -12.22,-14.7461 V 30.4531 h -14.05" /><path
           id="path94"
           style="fill:#231f20;fill-opacity:1;fill-rule:nonzero;stroke:none"
           d="m 1654.71,30.4531 v 58.9844 h 14.05 V 30.4531 Z m 0,67.9688 v 14.9761 h 14.05 V 98.4219 h -14.05" /><path
           id="path96"
           style="fill:#231f20;fill-opacity:1;fill-rule:nonzero;stroke:none"
           d="M 1684.09,30.4531 V 112.59 h 14.05 l 0.11,-47.4611 21.55,24.3086 h 16.7 l -21.08,-22.2344 22,-36.75 h -15.78 l -15.78,26.9571 -7.72,-8.293 V 30.4531 h -14.05" /><path
           id="path98"
           style="fill:none;stroke:#231f20;stroke-width:39.9997;stroke-linecap:butt;stroke-linejoin:miter;stroke-miterlimit:22.9256;stroke-dasharray:none;stroke-opacity:1"
           d="M 1353.01,843.16 H 985.637 V 567.633 H 1261.16 V 475.789 H 985.637 V 200.262 h 367.373 367.37 v 275.527 h -367.37 v 91.844 z" /><path
           id="path100"
           style="fill:#0091ca;fill-opacity:1;fill-rule:evenodd;stroke:none"
           d="M 1444.85,843.16 V 567.633 h 367.37 V 30.4492 L 1995.9,30.4414 V 843.16 h -551.05" /></g></g></g></svg>
