<?xml version="1.0" encoding="UTF-8" standalone="no"?>
<!-- Created with Inkscape (http://www.inkscape.org/) -->

<svg
   version="1.1"
   id="svg2"
   width="214.38667"
   height="56.693333"
   viewBox="0 0 214.38667 56.693333"
   sodipodi:docname="Logo_RUB_weiss_rgb.eps"
   xmlns:inkscape="http://www.inkscape.org/namespaces/inkscape"
   xmlns:sodipodi="http://sodipodi.sourceforge.net/DTD/sodipodi-0.dtd"
   xmlns="http://www.w3.org/2000/svg"
   xmlns:svg="http://www.w3.org/2000/svg">
  <defs
     id="defs6" />
  <sodipodi:namedview
     id="namedview4"
     pagecolor="#ffffff"
     bordercolor="#000000"
     borderopacity="0.25"
     inkscape:showpageshadow="2"
     inkscape:pageopacity="0.0"
     inkscape:pagecheckerboard="0"
     inkscape:deskcolor="#d1d1d1" />
  <g
     id="g8"
     inkscape:groupmode="layer"
     inkscape:label="ink_ext_XXXXXX"
     transform="matrix(1.3333333,0,0,-1.3333333,0,56.693333)">
    <g
       id="g10"
       transform="scale(0.1)">
      <path
         d="m 1277.82,224.117 v 85.313 h 59.1 c 27.12,0 48.55,-12.461 48.55,-41.848 0,-30.047 -24.59,-43.465 -51.44,-43.465 z m 0,-108.277 v 91.363 h 60.05 c 29.68,0 53.65,-13.746 53.65,-45.055 0,-31.914 -23.3,-46.308 -53.04,-46.308 z M 1257.7,98.5938 h 85.61 c 34.81,0 68.64,19.8042 68.64,62.9492 0,27.129 -16.91,50.758 -48.86,55.562 v 0.321 c 26.53,6.367 42.17,28.429 42.17,53.351 0,36.719 -25.24,55.887 -63.58,55.887 H 1257.7 V 98.5938"
         style="fill:#ffffff;fill-opacity:1;fill-rule:nonzero;stroke:none"
         id="path12" />
      <path
         d="m 1124.1,94.7656 c 53.36,0 92.33,30.6444 92.33,86.2504 v 145.347 h -49.18 V 182.598 c 0,-29.707 -14.71,-45.02 -42.16,-45.02 -29.43,0 -42.82,18.203 -42.82,45.02 v 143.765 h -49.81 V 178.145 c 0,-55.918 36.43,-83.3794 91.64,-83.3794"
         style="fill:#ffffff;fill-opacity:1;fill-rule:nonzero;stroke:none"
         id="path14" />
      <path
         d="m 952.207,174.883 c 31.836,18.066 44.102,44.898 44.102,72.047 0,44.707 -31.973,79.539 -79.239,79.539 H 816.309 V 98.7305 H 865.82 V 286.227 h 38.938 c 27.73,0 43.113,-16.543 43.113,-39.297 0,-19.61 -12.07,-39.473 -42.793,-39.473 H 873.906 L 952.207,98.7305 h 54.633 l -54.633,76.1525"
         style="fill:#ffffff;fill-opacity:1;fill-rule:nonzero;stroke:none"
         id="path16" />
      <path
         d="m 197.734,98.9922 h 21.243 c 8.363,0 16.339,4.8868 16.339,14.9808 0,6.308 -3.757,11.82 -10.918,13.086 v 0.078 c 6.028,1.758 9.336,6.601 9.336,12.265 0,8.774 -6.007,13.282 -15.359,13.282 h -20.641 z m 6.094,5.1798 v 19.82 h 13.789 c 6.629,0 11.606,-2.945 11.606,-9.726 0,-6.856 -4.977,-10.094 -11.532,-10.094 z m 0,24.918 v 18.398 h 13.266 c 6.105,0 10.699,-2.636 10.699,-9.004 0,-6.386 -5.051,-9.394 -11.07,-9.394 z m 61.856,-31.0939 c 11.07,0 20.336,7.2849 20.336,19.4339 v 17.715 c 0,11.738 -9.04,18.574 -20.489,18.574 -11.074,0 -20.41,-7.207 -20.41,-19.414 v -18.321 c 0,-11.738 9.336,-17.9879 20.563,-17.9879 m 0,5.4299 c -8.45,0 -14.547,5.039 -14.547,13.262 v 17.695 c 0,8.887 6.328,13.91 14.172,13.91 8.656,0 14.675,-4.785 14.675,-12.953 v -18.36 c 0,-8.804 -6.546,-13.554 -14.3,-13.554 m 51.75,-5.4299 c 10.695,0 18.976,5.9379 18.976,16.1369 v 1.93 h -5.789 v -1.133 c 0,-7.227 -5.355,-11.504 -13.187,-11.504 -8.434,0 -14.547,5.121 -14.547,13.262 v 18.007 c 0,8.496 6.336,13.481 14.16,13.481 7.914,0 13.574,-4.223 13.574,-11.465 v -1.875 h 5.789 v 2.633 c 0,9.922 -8.433,16.117 -19.137,16.117 -11.753,0 -20.402,-7.523 -20.402,-18.988 v -18.614 c 0,-11.738 9.102,-17.9879 20.563,-17.9879 m 30.347,0.9961 h 6.102 V 124.07 h 27.203 V 98.9922 h 6.094 v 53.6918 h -6.094 v -23.282 h -27.203 v 23.282 h -6.102 z m 72.176,-0.918 c 11.898,0 20.027,6.9918 19.953,18.8278 v 35.782 h -6.023 v -35.332 c 0.23,-8.805 -5.035,-13.805 -13.785,-13.805 -8.071,0 -13.864,4.469 -13.864,14.019 v 35.118 h -6.093 v -36.153 c 0,-12.984 9.406,-18.4568 19.812,-18.4568 m 32.91,0.918 h 5.871 V 141.98 h 0.227 l 15.758,-30.562 h 4.82 l 15.746,30.641 h 0.149 V 98.9922 h 5.871 v 53.6918 h -7.532 l -16.504,-32.911 h -0.07 l -16.883,32.911 h -7.453 V 98.9922"
         style="fill:#ffffff;fill-opacity:1;fill-rule:nonzero;stroke:none"
         id="path18" />
      <path
         d="m 217.848,185.051 c 12.507,0 21.007,7.32 21.007,20.133 v 34.414 h -10.007 v -33.985 c 0,-7.652 -3.692,-11.523 -11,-11.523 -7.832,0 -11,4.902 -11,11.523 v 33.985 h -10.012 v -35.196 c 0,-12.871 8.508,-19.351 21.012,-19.351 m 32.992,0.855 h 9.637 v 36.684 h 0.144 l 23.289,-36.684 h 9.785 v 53.692 h -9.629 v -36.621 h -0.156 l -23.367,36.621 h -9.703 z m 55.219,0 h 10.004 v 53.692 h -10.004 z m 34.578,-0.23 h 9.777 l 17.785,53.922 h -9.945 l -12.125,-39.532 h -0.152 l -12.125,39.532 h -10.84 z m 34.496,0.23 h 37.582 v 8.809 h -27.563 v 14.164 h 24.172 v 8.805 h -24.172 v 13.109 h 27.266 v 8.805 h -37.285 z m 48.594,0 h 10.003 v 20.102 h 8.668 l 12.582,-20.102 h 10.918 l -13.324,21.211 c 7.231,2.578 10.614,9.223 10.614,15.606 0,10.996 -8.129,16.875 -18.231,16.875 h -21.23 z m 10.003,28.52 v 16.734 h 9.875 c 5.579,0 9.79,-2.027 9.79,-8.359 0,-5.567 -3.832,-8.375 -9.633,-8.375 z m 58.461,-29.375 c 11.832,0 20.641,6.558 20.641,16.422 0,9.574 -5.875,13.398 -12.281,14.922 l -9.188,2.246 c -4.23,1.156 -7.832,2.89 -7.832,6.64 0,4.824 4.219,6.778 8.578,6.778 5.211,0 9.204,-1.637 11.547,-6.153 l 8.196,3.598 c -3.461,8.047 -9.942,11.012 -18.903,11.012 -10.41,0 -19.215,-5.899 -19.215,-15.973 0,-9.492 5.731,-12.738 12.883,-14.555 l 9.035,-2.168 c 4.153,-1.23 7.379,-3.023 7.379,-7.027 0,-4.965 -5.105,-7.074 -10.535,-7.074 -6.027,0 -10.937,2.953 -12.953,8.125 l -9.039,-3.535 c 2.781,-9.098 11.82,-13.258 21.687,-13.258 m 30.735,0.855 h 10.019 v 53.692 h -10.019 z m 34.422,0 h 9.933 v 45.102 h 15.457 v 8.59 h -40.824 v -8.59 h 15.434 z m 23.129,0 h 9.871 l 4.066,11.43 h 20.481 l 3.918,-11.43 h 10.621 l -19.809,53.692 h -9.191 z m 16.714,20.02 7.387,21.484 h 0.149 l 7.32,-21.484 z m -4.281,38.492 h 8.953 v 9.863 h -8.953 z m 15.067,0 h 8.957 v 9.863 h -8.957 z m 35.242,-58.512 h 9.945 v 45.102 h 15.445 v 8.59 h -40.828 v -8.59 h 15.438 v -45.102"
         style="fill:#ffffff;fill-opacity:1;fill-rule:nonzero;stroke:none"
         id="path20" />
      <path
         d="m 197.207,272.816 h 10.012 v 20.118 h 8.672 l 12.586,-20.118 h 10.902 l -13.32,21.231 c 7.23,2.558 10.617,9.18 10.617,15.586 0,11.015 -8.129,16.894 -18.231,16.894 h -21.238 z m 10.012,28.536 v 16.718 h 9.875 c 5.566,0 9.797,-2.011 9.797,-8.359 0,-5.566 -3.832,-8.359 -9.645,-8.359 z m 61.172,-29.375 c 12.507,0 21.004,7.304 21.004,20.117 v 34.433 h -10.008 v -33.984 c 0,-7.695 -3.688,-11.543 -10.996,-11.543 -7.84,0 -11.008,4.902 -11.008,11.543 v 33.984 h -10.012 v -35.195 c 0,-12.891 8.512,-19.355 21.02,-19.355 m 32.996,0.839 h 10.008 v 22.969 h 21.48 v -22.969 h 10.016 v 53.711 h -10.016 v -21.933 h -21.48 v 21.933 h -10.008 z m 53.867,0 h 10 v 20.118 h 8.672 l 12.582,-20.118 h 10.914 l -13.324,21.231 c 7.226,2.558 10.609,9.18 10.609,15.586 0,11.015 -8.121,16.894 -18.223,16.894 h -21.23 z m 10,28.536 v 16.718 h 9.879 c 5.57,0 9.793,-2.011 9.793,-8.359 0,-5.566 -3.852,-8.359 -9.645,-8.359 h -10.027"
         style="fill:#ffffff;fill-opacity:1;fill-rule:nonzero;stroke:none"
         id="path22" />
    </g>
  </g>
</svg>
