<?xml version="1.0" encoding="UTF-8" standalone="no"?>
<!-- Created with Inkscape (http://www.inkscape.org/) -->

<svg
   width="4.1999998mm"
   height="4.1999998mm"
   viewBox="0 0 4.1999999 4.1999999"
   version="1.1"
   id="svg5"
   inkscape:version="1.1.1 (3bf5ae0d25, 2021-09-20)"
   sodipodi:docname="maximize_button.svg"
   xmlns:inkscape="http://www.inkscape.org/namespaces/inkscape"
   xmlns:sodipodi="http://sodipodi.sourceforge.net/DTD/sodipodi-0.dtd"
   xmlns="http://www.w3.org/2000/svg"
   xmlns:svg="http://www.w3.org/2000/svg">
  <sodipodi:namedview
     id="namedview7"
     pagecolor="#ffffff"
     bordercolor="#666666"
     borderopacity="1.0"
     inkscape:pageshadow="2"
     inkscape:pageopacity="0.0"
     inkscape:pagecheckerboard="0"
     inkscape:document-units="mm"
     showgrid="false"
     inkscape:zoom="32"
     inkscape:cx="10.21875"
     inkscape:cy="6.953125"
     inkscape:window-width="1920"
     inkscape:window-height="1017"
     inkscape:window-x="1672"
     inkscape:window-y="-8"
     inkscape:window-maximized="1"
     inkscape:current-layer="layer1"
     showguides="false" />
  <defs
     id="defs2" />
  <g
     inkscape:label="Ebene 1"
     inkscape:groupmode="layer"
     id="layer1"
     transform="translate(-0.93262535,-0.65654045)">
    <path
       id="rect1730"
       style="fill:#999999;stroke-width:0.377953"
       d="M 1.28125 0 C 0.57101642 0 0 0.57101642 0 1.28125 L 0 14.591797 C 2.9605947e-16 15.30203 0.57101642 15.873047 1.28125 15.873047 L 14.591797 15.873047 C 15.30203 15.873047 15.873047 15.30203 15.873047 14.591797 L 15.873047 1.28125 C 15.873047 0.57101642 15.30203 0 14.591797 0 L 1.28125 0 z M 1.8554688 1.5117188 L 14.017578 1.5117188 C 14.208016 1.5117188 14.361328 1.6650313 14.361328 1.8554688 L 14.361328 14.017578 C 14.361328 14.208016 14.208016 14.361328 14.017578 14.361328 L 1.8554688 14.361328 C 1.6650313 14.361328 1.5117188 14.208016 1.5117188 14.017578 L 1.5117188 1.8554688 C 1.5117188 1.6650313 1.6650313 1.5117188 1.8554688 1.5117188 z "
       transform="matrix(0.26458333,0,0,0.26458333,0.93262535,0.65654045)" />
  </g>
</svg>
